<svg xmlns="http://www.w3.org/2000/svg" width="907.197" height="400.943" viewBox="0 0 907.197 400.943">
  <g id="postgresql_logo" transform="translate(-6.834 -5.348)">
    <path id="Path_2431" data-name="Path 2431" d="M63.549,90.537H19.532V46.256H65.944c16.983,0,25.483,7.59,25.483,22.48q0,21.794-27.869,21.8M95.2,45.751q-9.045-8.1-25.323-8.1l-63.041.339V143.9h12.7l-.118-45.088H66.325q17.645,0,27.775-8.1a27.189,27.189,0,0,0,10.136-22.48,28.637,28.637,0,0,0-9.048-22.48Zm82.189,75.927a21.589,21.589,0,0,1-6.03,9.005c-5.691,5.564-14.37,8.322-26.139,8.322-10.542,0-18.552-2.7-24.286-8.1a28.265,28.265,0,0,1-8.467-21.67,33.246,33.246,0,0,1,2.217-12.547,24.624,24.624,0,0,1,6.426-9.241q8.751-7.968,24.116-7.986c22.768,0,34.008,9.925,34.008,29.765a36.5,36.5,0,0,1-1.938,12.429m2.3-39.067q-11.612-10.584-34.38-10.584-21.5,0-33.24,10.82a34.22,34.22,0,0,0-10.584,26.412,34.649,34.649,0,0,0,10.929,26.647,36.5,36.5,0,0,0,14.056,7.911,64.835,64.835,0,0,0,18.837,2.531c15.177,0,26.6-3.49,34.573-10.472q10.584-9.562,10.584-26.52,0-17.077-10.708-26.648Zm96.124,42.136c0,14.334-12.776,21.386-38.317,21.386a111.816,111.816,0,0,1-19.732-1.485,33.593,33.593,0,0,1-13.021-4.932,19.481,19.481,0,0,1-6.139-6.747,27.957,27.957,0,0,1-2.951-10.584l11.794-.109a13.662,13.662,0,0,0,6.239,12.4q6.7,4.781,23.72,4.781,26.778,0,26.781-13.424,0-7.841-8.981-10.793-1.814-.569-21.67-3.024a136.545,136.545,0,0,1-24.733-4.385,15.171,15.171,0,0,1-10.584-15.12,17.034,17.034,0,0,1,9.444-15.927,47.3,47.3,0,0,1,11.67-3.357,96.967,96.967,0,0,1,16.224-1.21q36.893,0,36.893,23.146H261.071q0-16.266-25.931-16.275a43.848,43.848,0,0,0-19.674,3.372,10.8,10.8,0,0,0-6.49,10.143q0,6.375,8.751,9.217a179.092,179.092,0,0,0,23.545,3.423A80.936,80.936,0,0,1,263.9,109.44c7.808,3.024,11.794,8.165,11.794,15.465Zm46.682,19.4-4.838.674-3.024.227q-11.612,0-16.738-3.372c-3.414-2.253-5.059-6.172-5.059-11.794V81.531H278.671V74.422h14l.109-22.834h10.835V74.422h18.873v7.215l-18.873-.118v47.038a8.147,8.147,0,0,0,2.782,7.258,18.144,18.144,0,0,0,9.949,2,8.141,8.141,0,0,0,2.277-.085c.844-.136,2.084-.42,3.753-.859l.118,7.258ZM397.339,128a32.124,32.124,0,0,1-10.118,5.573,40.521,40.521,0,0,1-13.07,1.938c-22.68,0-33.984-9.275-33.984-28.081a25.435,25.435,0,0,1,8.685-20.457q8.676-7.388,24.494-7.388,15.912,0,24.159,7.445a25.556,25.556,0,0,1,8.246,19.958,26.629,26.629,0,0,1-8.416,21.029m19.254-53.64H405.754l-.118,11.948A71.413,71.413,0,0,0,395.4,77.119a48.686,48.686,0,0,0-23.542-5q-21.168,0-32.3,9.677-10.584,8.854-10.584,25.7a39.008,39.008,0,0,0,2.673,14.842,29.472,29.472,0,0,0,7.8,11.08q11.168,9.323,31.555,9.326c16.33,0,27.821-4.469,34.743-13.493v12.371a22.982,22.982,0,0,1-7.454,18.316q-7.451,6.477-24.513,6.493c-10.693,0-18.316-1.476-22.768-4.418a18.253,18.253,0,0,1-7.049-11.794H332.876a23.185,23.185,0,0,0,9.9,16.934q9.335,6.021,31.519,6.021,42.448,0,42.448-31.555V74.3Zm58.605,7.04a56.665,56.665,0,0,0-9.09-.792q-26.714,0-26.714,29.3V143.9H428.682l-.118-69.51L439.4,74.5V86.9h.565a21.631,21.631,0,0,1,8.643-11.113c4.318-2.531,10.759-3.668,19.326-3.668h7.276v9.3Zm10.085,23.324a31.014,31.014,0,0,1,9.208-18.35,32.675,32.675,0,0,1,10.584-5.649,43.47,43.47,0,0,1,13.306-1.881,34.733,34.733,0,0,1,23.587,7.926,23.457,23.457,0,0,1,9.232,17.96H485.364m66.9-21.431a34.743,34.743,0,0,0-14.116-8.44,63.671,63.671,0,0,0-19.689-2.74q-21.059,0-32.659,9.783a33.007,33.007,0,0,0-11.612,26.648,33.811,33.811,0,0,0,11.146,26.747q12.054,10.929,34.026,10.929a63.549,63.549,0,0,0,16.206-1.981,44.915,44.915,0,0,0,13.027-5.607,30.24,30.24,0,0,0,12.4-17.337H549.195c-4.022,11.794-14.022,17.826-30.019,17.826-11.3,0-19.986-2.9-26.139-8.718a25.656,25.656,0,0,1-7.841-19.354h77.242c0-11.794-3.372-21.038-10.354-27.821Z" transform="translate(0 233.114)" fill="#ffffff"/>
    <path id="Path_2432" data-name="Path 2432" d="M178.742,117.722q0,30.951-49.92,30.948-29.913,0-43.679-10.666c-7.59-5.842-11.258-14.757-11.258-26.732H87.378q0,28.9,41.529,28.9,19.91,0,28.789-5.9a18.589,18.589,0,0,0,7.59-16.36,15.649,15.649,0,0,0-10.245-15.465c-3.88-1.687-13.324-3.6-28.332-6.03q-28.335-4.324-36.751-8.633-12.169-6.35-12.178-21.6c0-9.468,3.372-16.526,10.354-21.15q11.131-7.614,38.232-7.614,48.95,0,48.934,32.508H161.693q0-24.349-36.261-24.343-18.214,0-26.647,4.89A17.21,17.21,0,0,0,90.816,65.83a15.141,15.141,0,0,0,10.245,14.908q5.443,2.5,32.094,6.955,25.045,3.756,33.73,8.77,11.954,6.148,11.948,21.283Zm108.846,10.542a52.282,52.282,0,0,1-16.965,9.03,69.667,69.667,0,0,1-21.168,3.024c-16.027,0-28.84-4.215-38.671-12.9a43.491,43.491,0,0,1-14.757-34.353q0-22.378,14.63-34.867c9.755-8.331,22.768-12.5,38.789-12.5q24.494,0,38.493,13.07a39.992,39.992,0,0,1,10.938,14.884,49.921,49.921,0,0,1,3.541,19.42q0,22.263-14.818,35.215m7.125,7.025a46.664,46.664,0,0,0,15.489-17.9,55.721,55.721,0,0,0,5.017-24.268q0-24.664-16.393-39.633a55.5,55.5,0,0,0-21.08-12.16,92.408,92.408,0,0,0-28.332-3.98q-30.951,0-48.6,15.011T183.188,93.076A50.876,50.876,0,0,0,200.9,133.425c11.794,10.227,28.081,15.347,48.638,15.347a120.082,120.082,0,0,0,21.047-1.627,51.142,51.142,0,0,0,15.244-5.032l19.8,13.72,8.265-7.59-19.166-13Zm120.836,10.82H324V40.077l12.589-.227v97.391h79.1l-.118,8.854Z" transform="translate(498.35 230.896)" fill="#367faf"/>
    <path id="Path_2433" data-name="Path 2433" d="M224.546,185.289c1.66-13.829,1.164-15.852,11.467-13.608l2.531.227a59.476,59.476,0,0,0,24.37-4.1c13.1-6.072,20.866-16.224,7.953-13.56-29.463,6.072-31.486-3.895-31.486-3.895C270.5,104.2,283.484,45.6,272.268,31.264c-30.615-39.131-83.62-20.621-84.5-20.14l-.278.051a104.419,104.419,0,0,0-19.656-2.05,48.925,48.925,0,0,0-31.2,9.317S42.1-20.513,46.417,67.437c.928,18.7,26.814,141.547,57.677,104.443,11.283-13.575,22.178-25.045,22.178-25.045a28.468,28.468,0,0,0,18.694,4.772l.523-.448a20.491,20.491,0,0,0,.212,5.28c-7.953,8.878-5.616,10.457-21.5,13.72-16.082,3.326-6.638,9.217-.463,10.759,7.478,1.872,24.8,4.521,36.469-11.848l-.463,1.872c3.121,2.495,2.909,17.935,3.348,28.964s1.179,21.334,3.432,27.407,4.89,21.706,25.8,17.237c17.455-3.744,30.812-9.123,32.027-59.222" transform="translate(293.133 0.313)" fill="#231f20" stroke="#231f20" stroke-width="2.598"/>
    <path id="Path_2434" data-name="Path 2434" d="M270.881,154.256c-29.463,6.072-31.486-3.895-31.486-3.895,31.117-46.158,44.1-104.754,32.886-119.1-30.612-39.128-83.617-20.618-84.494-20.137l-.287.051a104.418,104.418,0,0,0-19.656-2.05,48.925,48.925,0,0,0-31.2,9.317S42.106-20.513,46.424,67.437C47.352,86.155,73.238,208.984,104.1,171.88c11.283-13.575,22.178-25.045,22.178-25.045a28.583,28.583,0,0,0,18.685,4.772l.532-.448a20.59,20.59,0,0,0,.212,5.28c-7.953,8.878-5.616,10.457-21.5,13.72-16.082,3.326-6.638,9.217-.463,10.759,7.478,1.872,24.8,4.521,36.469-11.848l-.463,1.872c3.121,2.495,5.313,16.233,4.932,28.671s-.6,21,1.854,27.676,4.89,21.706,25.8,17.237c17.455-3.744,26.511-13.442,27.769-29.614.907-11.491,2.918-9.8,3.024-20.07l1.618-4.866c1.872-15.6.3-20.618,11.047-18.274l2.531.227a59.452,59.452,0,0,0,24.37-4.1c13.1-6.072,20.866-16.224,7.953-13.56Z" transform="translate(293.186 0.308)" fill="#417ba2"/>
    <g id="Group_1199" data-name="Group 1199" transform="translate(339.481 6.291)">
      <g id="Group_1197" data-name="Group 1197" transform="translate(0 0)">
        <path id="Path_2435" data-name="Path 2435" d="M161.617,163.5c-.81,29.006.2,58.209,3.024,65.318s8.912,20.911,29.817,16.426c17.455-3.744,23.814-10.986,26.563-26.983l6.453-51.136M136.657,18.112S42.045-20.571,46.43,67.364c.844,18.719,26.82,141.563,57.665,104.452,11.283-13.493,21.47-24.192,21.47-24.192m62.11-136.582C184.3,12.07,240.293-9.391,272.066,31.278c11.216,14.334-1.687,72.939-32.886,119.1" transform="translate(-46.282 -6.291)" fill="none" stroke="#fff" stroke-linecap="round" stroke-linejoin="round" stroke-width="0.866"/>
        <path id="Path_2436" data-name="Path 2436" d="M180.843,147.862s2.023,9.979,31.495,3.895c12.9-2.664,5.059,7.478-7.953,13.56-10.744,4.974-34.824,6.266-35.23-.623-1.013-17.793,12.683-12.38,11.688-16.832-.907-4.013-7.016-7.953-11.062-17.766-3.55-8.576-48.487-74.306,12.477-64.541,2.235-.463-15.9-57.988-72.957-58.926S54.137,76.786,54.137,76.786" transform="translate(12.043 -3.85)" fill="none" stroke="#fff" stroke-linecap="round" stroke-linejoin="bevel" stroke-width="0.866"/>
      </g>
      <g id="Group_1198" data-name="Group 1198" transform="translate(65.193 61.94)">
        <path id="Path_2437" data-name="Path 2437" d="M84.857,26.963c-7.953,8.878-5.616,10.457-21.5,13.72-16.082,3.326-6.638,9.217-.463,10.759,7.478,1.872,24.8,4.521,36.469-11.848,3.559-4.974-.018-12.937-4.908-14.969a7.233,7.233,0,0,0-9.58,2.335Z" transform="translate(-50.688 61.181)" fill="none" stroke="#fff" stroke-linejoin="round" stroke-width="0.866"/>
        <path id="Path_2438" data-name="Path 2438" d="M87.661,101.633c-.8-5.228,1.721-11.434,4.409-18.719C96.116,72,105.563,61.09,98,26.483c-5.564-25.786-42.989-5.371-43-1.872a175.575,175.575,0,0,1-.623,34.3c-3.024,21.622,13.744,39.917,33.08,38.03" transform="translate(-54.015 -13.637)" fill="none" stroke="#fff" stroke-linecap="round" stroke-linejoin="round" stroke-width="0.866"/>
      </g>
    </g>
    <g id="Group_1200" data-name="Group 1200" transform="translate(429.408 74.737)">
      <path id="Path_2439" data-name="Path 2439" d="M56.956,16.231c-.169,1.21,2.192,4.385,5.253,4.805a5.667,5.667,0,0,0,5.851-3.254c.16-1.188-2.192-2.513-5.262-2.951s-5.691.191-5.851,1.4Z" transform="translate(-56.947 -12.288)" fill="#fff" stroke="#fff" stroke-width="0.289"/>
      <path id="Path_2440" data-name="Path 2440" d="M77.825,15.922c.169,1.21-2.192,4.385-5.253,4.805a5.688,5.688,0,0,1-5.861-3.254c-.169-1.188,2.192-2.513,5.262-2.933s5.691.194,5.861,1.391Z" transform="translate(15.565 -14.408)" fill="#fff" stroke="#fff" stroke-width="0.144"/>
    </g>
    <path id="Path_2441" data-name="Path 2441" d="M75.1,13.608c.505,9.374-2.023,15.752-2.335,25.7-.472,14.515,6.916,31.09-4.215,47.7" transform="translate(458.669 54.379)" fill="none" stroke="#fff" stroke-linecap="round" stroke-linejoin="round" stroke-width="0.866"/>
  </g>
</svg>
